{
  "accessors": [
    {
      "bufferView": 2,
      "componentType": 5126,
      "count": 11089,
      "min": [
        -0.2099796086549759,
        -0.2099796086549759,
        -0.2695193290710449
      ],
      "max": [
        0.2099796086549759,
        0.2099796086549759,
        0.2493087500333786
      ],
      "type": "VEC3"
    },
    {
      "bufferView": 2,
      "byteOffset": 133068,
      "componentType": 5126,
      "count": 11089,
      "min": [
        -1.0,
        -1.0,
        -1.0
      ],
      "max": [
        1.0,
        1.0,
        1.0
      ],
      "type": "VEC3"
    },
    {
      "bufferView": 1,
      "componentType": 5126,
      "count": 11089,
      "min": [
        0.0001785983331501484,
        0.0001785983331501484
      ],
      "max": [
        0.794103741645813,
        0.9998215436935424
      ],
      "type": "VEC2"
    },
    {
      "bufferView": 0,
      "componentType": 5125,
      "count": 25440,
      "type": "SCALAR"
    }
  ],
  "asset": {
    "generator": "Sketchfab-14.79.0 + NVIDIA vk_gltf_renderer GitHubSync-3-ga11cace-dirty",
    "version": "2.0",
    "extras": {
      "author": "hinndia (https://sketchfab.com/hinndia)",
      "license": "CC-BY-4.0 (http://creativecommons.org/licenses/by/4.0/)",
      "source": "https://sketchfab.com/3d-models/traffic-cone-573feef839d7450cb3e12da9986e7a98",
      "title": "Traffic Cone"
    }
  },
  "bufferViews": [
    {
      "buffer": 0,
      "byteLength": 101760,
      "target": 34963,
      "name": "floatBufferViews"
    },
    {
      "buffer": 0,
      "byteLength": 88712,
      "byteStride": 8,
      "byteOffset": 101760,
      "target": 34962,
      "name": "floatBufferViews"
    },
    {
      "buffer": 0,
      "byteLength": 266136,
      "byteStride": 12,
      "byteOffset": 190472,
      "target": 34962,
      "name": "floatBufferViews"
    }
  ],
  "materials": [
    {
      "name": "ConeBaseMat",
      "doubleSided": true,
      "pbrMetallicRoughness": {
        "metallicFactor": 0.6700000166893005,
        "roughnessFactor": 0.35,
        "baseColorTexture": {
          "index": 0
        },
        "metallicRoughnessTexture": {
          "index": 1
        }
      },
      "extensions": {
        "EXT_materials_retroreflection": {
          "retroreflectionFactor": 1.0,
          "retroreflectionTexture": {
            "index": 2
          }
        }
      }
    },
    {
      "name": "ConeBaseMat_copy",
      "doubleSided": true,
      "pbrMetallicRoughness": {
        "metallicFactor": 0.20999999344348907,
        "roughnessFactor": 0.8299999833106995,
        "baseColorTexture": {
          "index": 0
        },
        "metallicRoughnessTexture": {
          "index": 1
        }
      }
    }
  ],
  "meshes": [
    {
      "primitives": [
        {
          "attributes": {
            "NORMAL": 1,
            "POSITION": 0,
            "TEXCOORD_0": 2
          },
          "indices": 3,
          "material": 0,
          "mode": 4
        }
      ],
      "name": "Cone.001_ConeBaseMat_0"
    },
    {
      "primitives": [
        {
          "attributes": {
            "NORMAL": 1,
            "POSITION": 0,
            "TEXCOORD_0": 2
          },
          "indices": 3,
          "material": 1,
          "mode": 4
        }
      ],
      "name": "Cone.001_ConeBaseMat_0_copy"
    }
  ],
  "nodes": [
    {
      "matrix": [
        1.0,
        0.0,
        0.0,
        0.0,
        0.0,
        2.220446049250313e-16,
        -1.0,
        0.0,
        0.0,
        1.0,
        2.220446049250313e-16,
        0.0,
        0.0,
        0.0,
        0.0,
        1.0
      ],
      "name": "Sketchfab_model",
      "children": [
        1
      ]
    },
    {
      "matrix": [
        0.009999999776482582,
        0.0,
        0.0,
        0.0,
        0.0,
        0.0,
        0.009999999776482582,
        0.0,
        0.0,
        -0.009999999776482582,
        0.0,
        0.0,
        0.0,
        0.0,
        0.0,
        1.0
      ],
      "name": "224bad2cddb044b598dff0929b2d802e.fbx",
      "children": [
        2
      ]
    },
    {
      "name": "RootNode",
      "children": [
        3
      ]
    },
    {
      "matrix": [
        100.0,
        0.0,
        0.0,
        0.0,
        0.0,
        -0.00001629206793918314,
        -99.99999999999868,
        0.0,
        0.0,
        99.99999999999868,
        -0.00001629206793918314,
        0.0,
        0.0,
        26.749345779418945,
        0.0,
        1.0
      ],
      "name": "Cone.001",
      "children": [
        4,
        7,
        8
      ]
    },
    {
      "mesh": 0,
      "name": "Cone.001_ConeBaseMat_0"
    },
    {
      "translation": [
        0.5303868886010136,
        0.8493458571242753,
        2.0419488243678785
      ],
      "rotation": [
        -0.13549359142780304,
        0.11413010954856873,
        0.015714427456259727,
        0.9840573668479919
      ],
      "camera": 0,
      "name": "Camera"
    },
    {
      "translation": [
        0.0,
        0.34038978815078735,
        0.6407261490821838
      ],
      "rotation": [
        -0.13795897364616394,
        0.08151177316904068,
        0.011393253691494465,
        0.9870123267173767
      ],
      "extensions": {
        "KHR_lights_punctual": {
          "light": 0
        }
      },
      "name": "Directional Light"
    },
    {
      "translation": [
        -0.6000000238418579,
        0.0,
        0.0
      ],
      "mesh": 0,
      "name": "Cone.001_ConeBaseMat_0_copy"
    },
    {
      "translation": [
        0.6000000238418579,
        0.0,
        0.0
      ],
      "mesh": 1,
      "name": "Cone.001_ConeBaseMat_0_copy_copy"
    }
  ],
  "scene": 0,
  "scenes": [
    {
      "nodes": [
        0,
        5,
        6
      ],
      "name": "Sketchfab_Scene"
    }
  ],
  "textures": [
    {
      "sampler": 0,
      "source": 0
    },
    {
      "sampler": 0,
      "source": 1
    },
    {
      "sampler": 0,
      "source": 2
    }
  ],
  "samplers": [
    {
      "magFilter": 9729,
      "minFilter": 9987,
      "wrapS": 10497,
      "wrapT": 10497
    }
  ],
  "cameras": [
    {
      "type": "perspective",
      "name": "Camera",
      "perspective": {
        "zfar": 3.9430770874023438,
        "znear": 0.03943077102303505,
        "aspectRatio": 1.7777777910232544,
        "yfov": 0.7853981633974483
      }
    }
  ],
  "extensions": {
    "KHR_lights_punctual": {
      "lights": [
        {
          "name": "Directional Light",
          "intensity": 1.2999999523162842,
          "color": [
            1.0,
            1.0,
            1.0
          ],
          "type": "directional",
          "extras": {
            "radius": 0.0
          }
        }
      ]
    }
  },
  "extensionsUsed": [
    "KHR_lights_punctual",
    "EXT_materials_retroreflection"
  ],
  "buffers": [
    {
      "byteLength": 456608,
      "uri": "traffic_cone.bin"
    }
  ],
  "images": [
    {
      "uri": "images/ConeBaseMat_baseColor.png"
    },
    {
      "uri": "images/ConeBaseMat_metallicRoughness.png"
    },
    {
      "uri": "images/ConeBaseMat_retroreflective.png"
    }
  ]
}
